<?xml version="1.0" encoding="UTF-8"?>
<svg width="24px" height="24px" viewBox="0 0 24 24" version="1.1" xmlns="http://www.w3.org/2000/svg">
    <g stroke="none" stroke-width="1" fill="none" fill-rule="evenodd">
        <path d="M12,2 C14.7614237,2 17,4.23857625 17,7 L17,7.5 L17.5,7.5 C19.9852814,7.5 22,9.51471863 22,12 C22,14.4852814 19.9852814,16.5 17.5,16.5 L6.5,16.5 C4.01471863,16.5 2,14.4852814 2,12 C2,9.51471863 4.01471863,7.5 6.5,7.5 L7,7.5 L7,7 C7,4.23857625 9.23857625,2 12,2 Z M12,4 C10.3431458,4 9,5.34314575 9,7 L9,7.5 L15,7.5 L15,7 C15,5.34314575 13.6568542,4 12,4 Z" fill="#D4AF37"/>
        <path d="M7,17.5 L17,17.5 L17,18.5 C17,20.0355339 15.7910524,21.2444815 14.2644185,21.2444815 L9.73558153,21.2444815 C8.20894761,21.2444815 7,20.0355339 7,18.5 L7,17.5 Z" fill="#D4AF37"/>
    </g>
</svg> 